<svg width="24" height="24" viewBox="0 0 24 24" fill="none" xmlns="http://www.w3.org/2000/svg">
<path d="M9 4.125C9 2.676 10.176 1.5 11.625 1.5H21.375C22.824 1.5 24 2.676 24 4.125V19.875C24 20.5712 23.7234 21.2389 23.2312 21.7312C22.7389 22.2234 22.0712 22.5 21.375 22.5H11.625C10.9288 22.5 10.2611 22.2234 9.76884 21.7312C9.27656 21.2389 9 20.5712 9 19.875V4.125ZM11.625 3.75C11.5255 3.75 11.4302 3.78951 11.3598 3.85984C11.2895 3.93016 11.25 4.02554 11.25 4.125V19.875C11.25 20.082 11.418 20.25 11.625 20.25H21.375C21.4745 20.25 21.5698 20.2105 21.6402 20.1402C21.7105 20.0698 21.75 19.9745 21.75 19.875V4.125C21.75 4.02554 21.7105 3.93016 21.6402 3.85984C21.5698 3.78951 21.4745 3.75 21.375 3.75H11.625ZM2.625 3.75C2.52554 3.75 2.43016 3.78951 2.35984 3.85984C2.28951 3.93016 2.25 4.02554 2.25 4.125V13.875C2.25 14.082 2.418 14.25 2.625 14.25H6V16.5H2.625C1.92881 16.5 1.26113 16.2234 0.768845 15.7312C0.276562 15.2389 0 14.5712 0 13.875L0 4.125C0 2.676 1.176 1.5 2.625 1.5H6V3.75H2.625ZM6 22.5H3V20.25H6V22.5Z" fill="#B3B3B3"/>
<path d="M19.5 15C19.5 15.7956 19.1839 16.5587 18.6213 17.1213C18.0587 17.6839 17.2956 18 16.5 18C15.7044 18 14.9413 17.6839 14.3787 17.1213C13.8161 16.5587 13.5 15.7956 13.5 15C13.5 14.2044 13.8161 13.4413 14.3787 12.8787C14.9413 12.3161 15.7044 12 16.5 12C17.2956 12 18.0587 12.3161 18.6213 12.8787C19.1839 13.4413 19.5 14.2044 19.5 15ZM18 7.5C18 7.89782 17.842 8.27936 17.5607 8.56066C17.2794 8.84196 16.8978 9 16.5 9C16.1022 9 15.7206 8.84196 15.4393 8.56066C15.158 8.27936 15 7.89782 15 7.5C15 7.10218 15.158 6.72064 15.4393 6.43934C15.7206 6.15804 16.1022 6 16.5 6C16.8978 6 17.2794 6.15804 17.5607 6.43934C17.842 6.72064 18 7.10218 18 7.5Z" fill="#B3B3B3"/>
</svg>
